<?xml version="1.0" encoding="utf-8"?>
<!-- Generator: Adobe Illustrator 24.0.0, SVG Export Plug-In . SVG Version: 6.00 Build 0)  -->
<svg version="1.1" id="Layer_1" xmlns="http://www.w3.org/2000/svg" xmlns:xlink="http://www.w3.org/1999/xlink" x="0px" y="0px"
	 viewBox="0 0 256 256" enable-background="new 0 0 256 256" xml:space="preserve">
<g>
</g>
<g>
	<g>
		<path fill="#F0C020" d="M220.418,104.745c-3.653-1.207-7.425-2.262-9.544-11.386c-1.951,8.404-5.076,9.91-9.544,11.386
			c7.286,2.408,8.385,6.394,9.544,11.386C212.871,107.526,216.173,106.148,220.418,104.745z"/>
	</g>
	<g>
		<path fill="#F0C020" d="M117.222,47.295c-3.653-1.207-7.425-2.262-9.544-11.386c-1.951,8.404-5.076,9.91-9.544,11.386
			c7.286,2.408,8.385,6.394,9.544,11.386C109.675,50.076,112.978,48.698,117.222,47.295z"/>
	</g>
	<g>
		<path fill="#F0C020" d="M36.886,208.699c-3.653-1.207-7.425-2.262-9.544-11.386c-1.951,8.404-5.076,9.91-9.544,11.386
			c7.286,2.408,8.385,6.394,9.544,11.386C29.339,211.48,32.642,210.102,36.886,208.699z"/>
	</g>
	<g>
		<path fill="#FB5E3D" d="M239.04,172.68h-40.16c-4.04-6.19-11.08-10.74-19.67-10.74c-8.6,0-15.65,4.55-19.7,10.74H91.7
			c-4.05-6.21-11.1-10.75-19.68-10.75c-8.58,0-15.64,4.54-19.69,10.75H23.42l0.53-10.74l2.42-48.79l1.28-25.76c0.01,0,0.01,0,0.02,0
			H177.6c0.03,0.07,0.04-0.08,0.06,0l12.09,48.26h35.5c5.04,0,9.28,3.72,9.96,8.7l0.39,2.88v0.01l1.99,14.69L239.04,172.68z"/>
	</g>
	<g>
		<path fill="#FFCBC3" d="M207.68,165.66H186.7c-1.37,0-2.5-1.12-2.5-2.5c0-1.37,1.13-2.5,2.5-2.5h20.979c1.38,0,2.5,1.13,2.5,2.5
			C210.18,164.54,209.06,165.66,207.68,165.66z"/>
	</g>
	<g>
		<path fill="#FFCBC3" d="M64.5,165.66H36.22c-1.38,0-2.5-1.12-2.5-2.5c0-1.38,1.12-2.5,2.5-2.5H64.5c1.38,0,2.5,1.12,2.5,2.5
			C67,164.54,65.88,165.66,64.5,165.66z"/>
	</g>
	<g>
		<path fill="#FFCBC3" d="M171.712,165.663h-67c-1.381,0-2.5-1.119-2.5-2.5s1.119-2.5,2.5-2.5h67c1.381,0,2.5,1.119,2.5,2.5
			S173.093,165.663,171.712,165.663z M94.712,165.663H79.537c-1.381,0-2.5-1.119-2.5-2.5s1.119-2.5,2.5-2.5h15.175
			c1.381,0,2.5,1.119,2.5,2.5S96.093,165.663,94.712,165.663z"/>
	</g>
	<g>
		<path fill="#7D7B79" d="M202.572,186.149c-0.427,12.54-10.727,22.553-23.364,22.553c-12.636,0-22.937-10.013-23.364-22.553
			c-0.331-4.66,1.034-9.416,3.668-13.468c4.052-6.196,11.101-10.749,19.695-10.749c8.595,0,15.633,4.553,19.674,10.749
			C201.538,176.744,202.903,181.51,202.572,186.149z"/>
	</g>
	<g>
		<path fill="#7D7B79" d="M95.38,186.15c-0.43,12.54-10.73,22.55-23.36,22.55c-12.64,0-22.94-10.01-23.37-22.55
			c-0.34-4.66,1.03-9.42,3.68-13.47c4.05-6.21,11.11-10.75,19.69-10.75c8.58,0,15.63,4.54,19.68,10.75
			C94.35,176.73,95.71,181.49,95.38,186.15z"/>
	</g>
	<g>
		<path fill="#EFEFEF" d="M102.032,106.879l-0.131,23.468c-0.016,2.933-2.399,5.302-5.332,5.302H45.597
			c-3.036,0-5.459-2.531-5.327-5.564l1.022-23.468c0.124-2.852,2.472-5.1,5.327-5.1H96.7
			C99.657,101.517,102.048,103.922,102.032,106.879z"/>
	</g>
	<g>
		<path fill="#EFEFEF" d="M167.501,135.649h-41.265c-2.874,0-5.231-2.279-5.329-5.151l-0.794-23.468
			c-0.102-3.014,2.313-5.512,5.329-5.512h36.152c2.443,0,4.574,1.661,5.17,4.03l5.907,23.468
			C173.519,132.383,170.973,135.649,167.501,135.649z"/>
	</g>
	<g>
		<path fill="#EFEFEF" d="M72.02,195.642c-5.728,0-10.329-4.578-10.329-10.329c0-5.653,4.601-10.319,10.329-10.319
			c5.768,0,10.508,4.751,10.307,10.703C82.134,191.275,77.607,195.642,72.02,195.642z"/>
	</g>
	<g>
		<path fill="#EFEFEF" d="M179.204,195.642c-5.734,0-10.318-4.59-10.318-10.329c0-5.727,4.657-10.319,10.318-10.319
			c5.789,0,10.518,4.772,10.317,10.703C189.329,191.274,184.796,195.642,179.204,195.642z"/>
	</g>
	<g>
		<path fill="#FFFFFF" d="M237.59,161.93h-9.07c-8.12,0-14.7-6.58-14.7-14.7h21.78v0.01L237.59,161.93z"/>
	</g>
	<g>
		<path fill="#72C2E9" d="M52.335,172.681c-2.655,4.052-4.02,8.808-3.69,13.468H20.473c-3.711,0-6.729-3.018-6.729-6.728
			c0-3.722,3.007-6.739,6.729-6.739H52.335z"/>
	</g>
	<g>
		<path fill="#72C2E9" d="M155.845,186.149H95.383c0.33-4.66-1.034-9.416-3.679-13.468h67.809
			C156.879,176.733,155.514,181.489,155.845,186.149z"/>
	</g>
	<g>
		<path fill="#72C2E9" d="M251.667,179.42c0,3.722-3.007,6.728-6.729,6.728h-42.366c0.331-4.638-1.034-9.405-3.69-13.468h46.055
			C248.649,172.681,251.667,175.699,251.667,179.42z"/>
	</g>
	<g>
		<path fill="#7D7B79" d="M26.369,113.151l-2.42,48.785H9.67c-3.039,0-5.46-2.538-5.332-5.567l1.674-38.122
			c0.128-2.858,2.474-5.097,5.332-5.097H26.369z"/>
	</g>
	<g>
		<path fill="#72C2E9" d="M186.94,79.875c0,4.13-3.346,7.512-7.475,7.512H26.369c-0.01,0-0.01,0-0.02,0
			c-4.108-0.02-7.455-3.367-7.455-7.512c0-4.129,3.346-7.475,7.475-7.475h153.096C183.543,72.399,186.94,75.693,186.94,79.875z"/>
	</g>
	<g>
		<path fill="#EFEFEF" d="M13.067,156.003c-1.378-0.084-2.427-1.27-2.343-2.648l0.234-3.844c0.084-1.377,1.239-2.429,2.647-2.343
			c1.378,0.084,2.427,1.27,2.343,2.648l-0.234,3.844C15.632,155.017,14.473,156.083,13.067,156.003z M13.91,142.178
			c-1.378-0.084-2.427-1.27-2.343-2.648l1.156-18.965c0.084-1.378,1.256-2.431,2.647-2.343c1.378,0.084,2.427,1.27,2.343,2.648
			l-1.156,18.965C16.475,141.192,15.316,142.258,13.91,142.178z"/>
	</g>
	<g>
		<path d="M200.561,107.075c6.167,2.037,6.865,5.05,7.923,9.611c0.588,2.53,4.192,2.529,4.779,0
			c1.757-7.574,4.344-8.428,7.923-9.611c2.236-0.739,2.241-3.918,0-4.659c-3.439-1.133-6.125-1.865-7.924-9.611
			c-0.585-2.525-4.195-2.518-4.778,0c-1.759,7.574-4.211,8.385-7.924,9.612C198.326,103.155,198.321,106.335,200.561,107.075z
			 M210.883,100.524c1.107,1.993,2.367,3.313,3.668,4.244c-1.358,0.954-2.577,2.234-3.629,4.094
			c-0.869-1.464-2.075-2.849-3.84-4.061C208.511,103.822,209.789,102.492,210.883,100.524z"/>
		<path d="M97.366,49.625c6.166,2.037,6.865,5.05,7.923,9.611c0.588,2.53,4.192,2.529,4.779,0c1.757-7.574,4.344-8.428,7.923-9.611
			c2.236-0.739,2.241-3.918,0-4.659c-3.439-1.133-6.125-1.865-7.924-9.612c-0.585-2.525-4.195-2.518-4.779,0
			c-1.759,7.574-4.211,8.385-7.924,9.612C95.13,45.705,95.125,48.884,97.366,49.625z M107.688,43.074
			c1.107,1.993,2.367,3.313,3.668,4.244c-1.358,0.954-2.577,2.234-3.629,4.094c-0.869-1.464-2.075-2.849-3.84-4.061
			C105.315,46.371,106.594,45.042,107.688,43.074z"/>
		<path d="M37.656,206.37c-3.439-1.133-6.125-1.865-7.924-9.611c-0.585-2.525-4.195-2.518-4.779,0
			c-1.759,7.574-4.211,8.385-7.924,9.612c-2.236,0.739-2.241,3.918,0,4.658c6.166,2.037,6.865,5.05,7.923,9.611
			c0.588,2.53,4.192,2.529,4.78,0c1.757-7.574,4.343-8.429,7.923-9.611C39.891,210.29,39.896,207.11,37.656,206.37z M27.392,212.816
			c-0.869-1.464-2.075-2.849-3.84-4.061c1.428-0.98,2.706-2.309,3.801-4.277c1.107,1.993,2.367,3.313,3.668,4.244
			C29.662,209.676,28.444,210.956,27.392,212.816z"/>
		<path d="M137.569,146.41H121.37c-1.38,0-2.5,1.12-2.5,2.5c0,1.38,1.12,2.5,2.5,2.5h16.199c1.381,0,2.5-1.12,2.5-2.5
			C140.069,147.53,138.95,146.41,137.569,146.41z"/>
		<circle cx="70.58" cy="101.52" r="2.5"/>
		<path d="M96.569,138.15c4.29,0,7.801-3.5,7.83-7.79c0-0.05,0.131-23.461,0.131-23.51c0-4.32-3.511-7.83-7.83-7.83H80.58
			c-1.38,0-2.5,1.12-2.5,2.5c0,1.38,1.12,2.5,2.5,2.5H96.7c1.48,0,2.83,1.158,2.83,2.92l-0.131,23.39
			c-0.01,1.56-1.279,2.82-2.83,2.82H45.6c-1.48,0-2.832-1.168-2.832-2.888c0.007-0.113,1.017-23.418,1.022-23.532
			c0.069-1.52,1.31-2.71,2.83-2.71h13.96c1.38,0,2.5-1.12,2.5-2.5c0-1.38-1.12-2.5-2.5-2.5H46.62c-4.2,0-7.641,3.29-7.83,7.49
			l-1.021,23.47c0,0,0.069,8.17,7.83,8.17H96.569z"/>
		<path d="M126.236,138.149h41.265c5.099,0,8.84-4.793,7.595-9.744l-5.907-23.468c-0.877-3.486-4.001-5.92-7.595-5.92h-36.152
			c-4.434,0-7.977,3.665-7.827,8.097l0.794,23.469C118.553,134.825,121.991,138.149,126.236,138.149z M125.441,104.017h36.152
			c1.3,0,2.429,0.88,2.746,2.141l5.906,23.468c0.451,1.79-0.902,3.523-2.745,3.523h-41.265c-1.535,0-2.778-1.202-2.83-2.736
			l-0.794-23.469C122.557,105.332,123.848,104.017,125.441,104.017z"/>
		<path d="M244.939,170.18h-3.714l-3.536-26.167c-0.849-6.192-6.195-10.862-12.437-10.862h-33.548l-10.868-43.37
			c4.849-0.684,8.602-4.861,8.602-9.911c0-5.49-4.479-9.96-9.979-9.97h-31.48c-1.38,0-2.5,1.12-2.5,2.5s1.12,2.5,2.5,2.5h0.011
			h31.47c2.74,0,4.979,2.23,4.979,4.97c0,2.76-2.239,5.01-4.979,5.02H26.35c-2.74-0.02-4.96-2.26-4.96-5.02
			c0.01-2.73,2.24-4.97,4.98-4.97h101.609c1.38,0,2.5-1.12,2.5-2.5s-1.12-2.5-2.5-2.5H26.37c-5.5,0-9.971,4.47-9.98,9.97
			c0.009,5.052,3.776,9.242,8.636,9.916l-1.035,20.865H11.34c-4.2,0-7.64,3.29-7.82,7.49c-0.008,0.183-1.689,38.277-1.689,38.46
			c0,4.31,3.52,7.83,7.84,7.84h11.651l-0.285,5.74H20.47c-5.08,0-9.22,4.15-9.229,9.24c0.01,5.08,4.149,9.22,9.229,9.23h25.876
			c1.614,12.636,12.395,22.55,25.674,22.55c13.33,0,24.045-9.981,25.663-22.55h55.861c1.605,12.674,12.44,22.55,25.667,22.55h0.01
			c3.7,0,7.28-0.77,10.64-2.28c1.25-0.57,1.82-2.05,1.25-3.31c-0.55-1.22-2.079-1.8-3.31-1.25c-2.7,1.22-5.6,1.84-8.6,1.84
			c-11.129,0-20.91-8.663-20.91-21.43c0-10.047,8.731-20.334,20.918-20.334c12.721,0,21.72,11.367,20.872,21.544
			c-0.134,1-0.009,2.478-0.87,5.35c-0.384,1.292,0.327,2.718,1.68,3.12c1.3,0.38,2.73-0.4,3.11-1.68
			c0.402-1.341,0.682-2.721,0.861-4.12h40.078c5.08-0.01,9.221-4.15,9.23-9.23C254.16,174.33,250.02,170.18,244.939,170.18z
			 M9.67,159.44c-1.561-0.01-2.84-1.28-2.84-2.84v-0.01l1.68-38.23c0.07-1.52,1.31-2.71,2.83-2.71h12.4
			c-0.227,4.584-1.93,38.935-2.171,43.79H9.67z M30.027,89.89h145.684l11.617,46.369c0.278,1.112,1.278,1.893,2.425,1.893h35.499
			c3.755,0,6.972,2.812,7.481,6.53l0.007,0.049h-18.922c-0.659,0-1.3,0.27-1.77,0.74c-0.47,0.46-0.73,1.1-0.73,1.76
			c0,9.49,7.711,17.2,17.2,17.2h6.881l0.776,5.75h-35.985c-4.981-6.845-12.824-10.75-20.982-10.75
			c-8.451,0-16.245,4.178-21.004,10.75H93.012c-4.914-6.754-12.65-10.75-20.993-10.75c-8.218,0-16.014,3.929-20.994,10.75H26.042
			L30.027,89.89z M234.72,159.43h-6.2c-5.75-0.01-10.77-4.08-11.939-9.7h16.83L234.72,159.43z M153.319,183.65h-55.42
			c-0.133-2.774-0.813-5.702-2.018-8.465h59.456C154.144,177.926,153.462,180.927,153.319,183.65z M16.24,179.42
			c0-2.33,1.899-4.24,4.229-4.24c0,0,0.196,0.005,27.678,0.005c-1.24,2.857-1.883,5.696-2.027,8.465H20.47
			C18.149,183.64,16.25,181.75,16.24,179.42z M92.88,186.06c-0.39,11.29-9.55,20.14-20.85,20.14H72.02
			c-11.15,0-20.929-8.704-20.929-21.435c0.003-9.83,8.566-20.329,20.928-20.329C85.378,164.436,94.007,176.821,92.88,186.06z
			 M244.939,183.65h-39.85c-0.158-3.02-0.876-5.776-2.028-8.465c32.665,0,41.053-0.005,41.878-0.005c2.32,0,4.221,1.91,4.23,4.24
			C249.17,181.75,247.27,183.65,244.939,183.65z"/>
		<circle cx="137.979" cy="72.4" r="2.5"/>
		<path d="M194.92,199.08c-0.91,1.04-0.811,2.62,0.229,3.53c1.042,0.906,2.59,0.807,3.521-0.22c0-0.01,0.01-0.01,0.01-0.01
			c0.91-1.04,0.8-2.62-0.229-3.53C197.45,197.97,195.79,198.09,194.92,199.08z"/>
		<path d="M72.02,172.5c-7.069,0-12.819,5.75-12.83,12.81c0.022,7.141,5.742,12.83,12.83,12.83l0.021-0.05v0.05
			c7.322,0,12.779-6.058,12.779-12.42C84.819,177.654,78.668,172.5,72.02,172.5z M79.83,185.61c-0.16,4.22-3.59,7.52-7.811,7.53
			c-4.38-0.01-7.819-3.45-7.83-7.83c0.011-4.3,3.521-7.81,7.83-7.82C76.087,177.499,79.83,180.671,79.83,185.61z"/>
		<path d="M179.2,172.5c-7.061,0-12.811,5.75-12.811,12.81c0,7.137,5.75,12.83,12.811,12.83l0.02-0.05v0.05
			c6.883,0,12.572-5.404,12.8-12.36C192.02,177.544,185.759,172.5,179.2,172.5z M187.02,185.61c-0.149,4.22-3.59,7.52-7.819,7.53
			c-4.37-0.01-7.811-3.45-7.82-7.83c0.01-4.3,3.52-7.81,7.82-7.82C183.236,177.499,187.02,180.635,187.02,185.61z"/>
	</g>
</g>
</svg>
